<?xml version="1.0" encoding="UTF-8"?>
<svg xmlns="http://www.w3.org/2000/svg" xmlns:xlink="http://www.w3.org/1999/xlink" viewBox="0 0 100 100" width="100px" height="100px">
<g id="surface72523814">
<path style=" stroke:none;fill-rule:nonzero;fill:rgb(100%,100%,100%);fill-opacity:1;" d="M 87.5 25.894531 C 84.742188 27.113281 81.777344 27.929688 78.652344 28.316406 C 81.832031 26.425781 84.277344 23.417969 85.425781 19.859375 C 82.449219 21.605469 79.152344 22.886719 75.648438 23.558594 C 72.847656 20.589844 68.855469 18.75 64.429688 18.75 C 55.929688 18.75 49.039062 25.578125 49.039062 34 C 49.039062 35.191406 49.179688 36.351562 49.441406 37.480469 C 36.652344 36.835938 25.3125 30.757812 17.726562 21.535156 C 16.390625 23.789062 15.640625 26.425781 15.640625 29.210938 C 15.640625 34.507812 18.351562 39.167969 22.484375 41.914062 C 19.960938 41.835938 17.585938 41.132812 15.507812 40.007812 C 15.507812 40.054688 15.507812 40.121094 15.507812 40.1875 C 15.507812 47.585938 20.816406 53.746094 27.847656 55.148438 C 26.5625 55.5 25.203125 55.695312 23.804688 55.695312 C 22.808594 55.695312 21.839844 55.582031 20.902344 55.414062 C 22.863281 61.460938 28.542969 65.878906 35.273438 66.011719 C 30.007812 70.09375 23.375 72.539062 16.164062 72.539062 C 14.917969 72.539062 13.699219 72.46875 12.492188 72.324219 C 19.308594 76.636719 27.398438 79.167969 36.085938 79.167969 C 64.386719 79.167969 79.871094 55.925781 79.871094 35.761719 C 79.871094 35.101562 79.851562 34.445312 79.820312 33.792969 C 82.839844 31.660156 85.445312 28.96875 87.5 25.894531 "/>
</g>
</svg>
