<?xml version="1.0" encoding="UTF-8"?>
<svg xmlns="http://www.w3.org/2000/svg" xmlns:xlink="http://www.w3.org/1999/xlink" viewBox="0 0 150 150" width="150px" height="150px">
<g id="surface72834339">
<path style=" stroke:none;fill-rule:nonzero;fill:rgb(100%,100%,100%);fill-opacity:1;" d="M 69.082031 113.925781 C 77.6875 102.667969 81 99.367188 81 93.066406 C 81 84.457031 74.046875 80.484375 68.417969 76.511719 C 62.789062 72.539062 53.515625 69.226562 56.5 63.601562 C 54.179688 61.945312 54.179688 61.945312 54.179688 61.945312 L 47.226562 70.554688 C 47.226562 70.554688 41.984375 76.1875 42.257812 82.804688 C 42.589844 90.753906 45.933594 93.355469 52.855469 98.035156 C 64.113281 105.652344 69.40625 108.632812 66.429688 111.941406 C 69.082031 113.925781 67.425781 112.601562 69.082031 113.925781 Z M 96.371094 90 L 110.996094 71.152344 C 110.996094 71.152344 116.074219 65.734375 116.074219 55.585938 C 116.074219 45.433594 107.953125 39.339844 103.550781 36.292969 C 99.148438 33.25 82.90625 22.078125 82.90625 22.078125 C 82.90625 22.078125 77.152344 19.035156 77.152344 14.632812 C 77.152344 11.25 78.078125 10.691406 78.078125 10.691406 L 76.050781 9 L 63.277344 26.140625 C 63.277344 26.140625 58.199219 31.554688 58.199219 39.675781 C 58.199219 47.796875 61.921875 54.226562 65.984375 57.273438 C 70.046875 60.316406 88.324219 72.839844 88.324219 72.839844 C 88.324219 72.839844 94.324219 77.296875 95.089844 82.65625 C 95.628906 86.398438 95.359375 86.953125 94.34375 88.644531 C 96.371094 90 96.371094 90 96.371094 90 Z M 89.34375 141 L 60.65625 141 L 57.65625 129 L 36 129 L 39 123 L 111 123 L 114 129 L 92.34375 129 Z M 89.34375 141 "/>
</g>
</svg>
