<?xml version="1.0" encoding="UTF-8"?>
<svg xmlns="http://www.w3.org/2000/svg" xmlns:xlink="http://www.w3.org/1999/xlink" viewBox="0 0 240 240" width="240px" height="240px">
<g id="surface72690256">
<path style=" stroke:none;fill-rule:nonzero;fill:rgb(100%,100%,100%);fill-opacity:1;" d="M 79.984375 24 C 49.113281 24 24 49.136719 24 80.015625 L 24 160.015625 C 24 190.886719 49.136719 216 80.015625 216 L 160.015625 216 C 190.886719 216 216 190.863281 216 159.984375 L 216 79.984375 C 216 49.113281 190.863281 24 159.984375 24 Z M 176 56 C 180.414062 56 184 59.582031 184 64 C 184 68.414062 180.414062 72 176 72 C 171.582031 72 168 68.414062 168 64 C 168 59.582031 171.582031 56 176 56 Z M 120 72 C 146.472656 72 168 93.527344 168 120 C 168 146.472656 146.472656 168 120 168 C 93.527344 168 72 146.472656 72 120 C 72 93.527344 93.527344 72 120 72 Z M 120 88 C 102.328125 88 88 102.328125 88 120 C 88 137.671875 102.328125 152 120 152 C 137.671875 152 152 137.671875 152 120 C 152 102.328125 137.671875 88 120 88 Z M 120 88 "/>
</g>
</svg>
