<?xml version="1.0" encoding="UTF-8"?>
<svg xmlns="http://www.w3.org/2000/svg" xmlns:xlink="http://www.w3.org/1999/xlink" viewBox="0 0 250 250" width="250px" height="250px">
<g id="surface72533160">
<path style=" stroke:none;fill-rule:nonzero;fill:rgb(100%,100%,100%);fill-opacity:1;" d="M 224.492188 72.5 C 222.5 61.503906 213.007812 53.496094 201.992188 50.996094 C 185.507812 47.5 155 45 121.992188 45 C 89.003906 45 58.007812 47.5 41.503906 50.996094 C 30.507812 53.496094 20.996094 60.996094 19.003906 72.5 C 16.992188 85 15 102.5 15 125 C 15 147.5 16.992188 165 19.492188 177.5 C 21.503906 188.496094 30.996094 196.503906 41.992188 199.003906 C 59.492188 202.5 89.492188 205 122.5 205 C 155.507812 205 185.507812 202.5 203.007812 199.003906 C 214.003906 196.503906 223.496094 189.003906 225.507812 177.5 C 227.5 165 230 146.992188 230.507812 125 C 229.492188 102.5 226.992188 85 224.492188 72.5 Z M 95 160 L 95 90 L 155.996094 125 Z M 95 160 "/>
</g>
</svg>
