<?xml version="1.0" encoding="UTF-8"?>
<svg xmlns="http://www.w3.org/2000/svg" xmlns:xlink="http://www.w3.org/1999/xlink" viewBox="0 0 500 500" width="500px" height="500px">
<g id="surface72532312">
<path style=" stroke:none;fill-rule:nonzero;fill:rgb(100%,100%,100%);fill-opacity:1;" d="M 230.269531 379.75 C 258.960938 342.230469 270 331.21875 270 310.21875 C 270 281.519531 246.820312 268.28125 228.058594 255.039062 C 209.300781 241.800781 178.390625 230.761719 188.328125 212 C 180.601562 206.480469 180.601562 206.480469 180.601562 206.480469 L 157.421875 235.179688 C 157.421875 235.179688 139.949219 253.960938 140.859375 276.019531 C 141.960938 302.511719 153.109375 311.179688 176.179688 326.789062 C 213.710938 352.171875 231.359375 362.109375 221.429688 373.140625 C 230.269531 379.75 224.75 375.339844 230.269531 379.75 Z M 321.238281 300 L 369.988281 237.171875 C 369.988281 237.171875 386.910156 219.121094 386.910156 185.28125 C 386.910156 151.441406 359.839844 131.128906 345.171875 120.980469 C 330.5 110.828125 276.351562 73.601562 276.351562 73.601562 C 276.351562 73.601562 257.171875 63.449219 257.171875 48.78125 C 257.171875 37.5 260.261719 35.640625 260.261719 35.640625 L 253.5 30 L 210.921875 87.128906 C 210.921875 87.128906 194 105.179688 194 132.25 C 194 159.320312 206.410156 180.761719 219.949219 190.910156 C 233.488281 201.058594 294.410156 242.800781 294.410156 242.800781 C 294.410156 242.800781 314.410156 257.648438 316.96875 275.519531 C 318.761719 287.988281 317.859375 289.839844 314.480469 295.480469 C 321.238281 300 321.238281 300 321.238281 300 Z M 297.808594 470 L 202.191406 470 L 192.191406 430 L 120 430 L 130 410 L 370 410 L 380 430 L 307.808594 430 Z M 297.808594 470 "/>
</g>
</svg>
