<?xml version="1.0" encoding="UTF-8"?>
<svg xmlns="http://www.w3.org/2000/svg" xmlns:xlink="http://www.w3.org/1999/xlink" viewBox="0 0 240 240" width="240px" height="240px">
<g id="surface72825911">
<path style=" stroke:none;fill-rule:nonzero;fill:rgb(100%,100%,100%);fill-opacity:1;" d="M 210 62.144531 C 203.386719 65.074219 196.269531 67.03125 188.765625 67.953125 C 196.394531 63.425781 202.265625 56.199219 205.019531 47.664062 C 197.878906 51.851562 189.96875 54.925781 181.554688 56.546875 C 174.835938 49.421875 165.25 45 154.628906 45 C 134.230469 45 117.695312 61.390625 117.695312 81.601562 C 117.695312 84.460938 118.03125 87.246094 118.660156 89.949219 C 87.96875 88.410156 60.75 73.820312 42.539062 51.679688 C 39.339844 57.089844 37.539062 63.425781 37.539062 70.109375 C 37.539062 82.816406 44.046875 94 53.964844 100.589844 C 47.910156 100.40625 42.210938 98.71875 37.21875 96.019531 C 37.21875 96.128906 37.21875 96.296875 37.21875 96.449219 C 37.21875 114.203125 49.953125 128.988281 66.835938 132.355469 C 63.75 133.199219 60.488281 133.667969 57.128906 133.667969 C 54.746094 133.667969 52.421875 133.398438 50.171875 132.996094 C 54.871094 147.503906 68.503906 158.109375 84.660156 158.425781 C 72.019531 168.226562 56.101562 174.09375 38.789062 174.09375 C 35.800781 174.09375 32.875 173.925781 29.984375 173.574219 C 46.339844 183.929688 65.761719 190 86.605469 190 C 154.53125 190 191.691406 134.21875 191.691406 85.828125 C 191.691406 84.246094 191.640625 82.664062 191.566406 81.105469 C 198.816406 75.984375 205.066406 69.523438 210 62.144531 "/>
</g>
</svg>
