<?xml version="1.0" encoding="UTF-8"?>
<svg xmlns="http://www.w3.org/2000/svg" xmlns:xlink="http://www.w3.org/1999/xlink" viewBox="0 0 50 50" width="50px" height="50px">
<g id="surface72532307">
<path style=" stroke:none;fill-rule:nonzero;fill:rgb(100%,100%,100%);fill-opacity:1;" d="M 23.027344 37.976562 C 25.894531 34.222656 27 33.121094 27 31.023438 C 27 28.152344 24.683594 26.828125 22.804688 25.503906 C 20.929688 24.179688 17.839844 23.074219 18.832031 21.199219 C 18.058594 20.648438 18.058594 20.648438 18.058594 20.648438 L 15.742188 23.519531 C 15.742188 23.519531 13.996094 25.394531 14.085938 27.601562 C 14.195312 30.25 15.3125 31.117188 17.617188 32.679688 C 21.371094 35.21875 23.136719 36.210938 22.144531 37.3125 C 23.027344 37.976562 22.476562 37.535156 23.027344 37.976562 Z M 32.125 30 L 37 23.71875 C 37 23.71875 38.691406 21.910156 38.691406 18.527344 C 38.691406 15.144531 35.984375 13.113281 34.515625 12.097656 C 33.050781 11.082031 27.636719 7.359375 27.636719 7.359375 C 27.636719 7.359375 25.71875 6.34375 25.71875 4.878906 C 25.71875 3.75 26.027344 3.5625 26.027344 3.5625 L 25.351562 3 L 21.09375 8.714844 C 21.09375 8.714844 19.398438 10.519531 19.398438 13.226562 C 19.398438 15.933594 20.640625 18.074219 21.996094 19.089844 C 23.347656 20.105469 29.441406 24.28125 29.441406 24.28125 C 29.441406 24.28125 31.441406 25.765625 31.695312 27.550781 C 31.875 28.800781 31.785156 28.984375 31.449219 29.546875 C 32.125 30 32.125 30 32.125 30 Z M 29.78125 47 L 20.21875 47 L 19.21875 43 L 12 43 L 13 41 L 37 41 L 38 43 L 30.78125 43 Z M 29.78125 47 "/>
</g>
</svg>
