<?xml version="1.0" encoding="UTF-8"?>
<svg xmlns="http://www.w3.org/2000/svg" xmlns:xlink="http://www.w3.org/1999/xlink" viewBox="0 0 500 500" width="500px" height="500px">
<g id="surface72659611">
<path style=" stroke:none;fill-rule:nonzero;fill:rgb(100%,100%,100%);fill-opacity:1;" d="M 448.984375 145 C 445 123.007812 426.015625 106.992188 403.984375 101.992188 C 371.015625 95 310 90 243.984375 90 C 178.007812 90 116.015625 95 83.007812 101.992188 C 61.015625 106.992188 41.992188 121.992188 38.007812 145 C 33.984375 170 30 205 30 250 C 30 295 33.984375 330 38.984375 355 C 43.007812 376.992188 61.992188 393.007812 83.984375 398.007812 C 118.984375 405 178.984375 410 245 410 C 311.015625 410 371.015625 405 406.015625 398.007812 C 428.007812 393.007812 446.992188 378.007812 451.015625 355 C 455 330 460 293.984375 461.015625 250 C 458.984375 205 453.984375 170 448.984375 145 Z M 190 320 L 190 180 L 311.992188 250 Z M 190 320 "/>
</g>
</svg>
