<?xml version="1.0" encoding="UTF-8"?>
<svg xmlns="http://www.w3.org/2000/svg" xmlns:xlink="http://www.w3.org/1999/xlink" viewBox="0 0 100 100" width="100px" height="100px">
<g id="surface72581343">
<path style=" stroke:none;fill-rule:nonzero;fill:rgb(100%,100%,100%);fill-opacity:1;" d="M 50 10 C 27.910156 10 10 27.910156 10 50 C 10 70.054688 24.773438 86.613281 44.019531 89.507812 L 44.019531 60.601562 L 34.125 60.601562 L 34.125 50.085938 L 44.019531 50.085938 L 44.019531 43.089844 C 44.019531 31.507812 49.664062 26.421875 59.289062 26.421875 C 63.898438 26.421875 66.339844 26.765625 67.492188 26.921875 L 67.492188 36.097656 L 60.925781 36.097656 C 56.839844 36.097656 55.414062 39.972656 55.414062 44.339844 L 55.414062 50.085938 L 67.390625 50.085938 L 65.765625 60.601562 L 55.414062 60.601562 L 55.414062 89.589844 C 74.9375 86.941406 90 70.25 90 50 C 90 27.910156 72.089844 10 50 10 Z M 50 10 "/>
</g>
</svg>
