<?xml version="1.0" encoding="UTF-8"?>
<svg xmlns="http://www.w3.org/2000/svg" xmlns:xlink="http://www.w3.org/1999/xlink" viewBox="0 0 250 250" width="250px" height="250px">
<g id="surface72834344">
<path style=" stroke:none;fill-rule:nonzero;fill:rgb(100%,100%,100%);fill-opacity:1;" d="M 115.136719 189.875 C 129.480469 171.113281 135 165.609375 135 155.109375 C 135 140.761719 123.410156 134.140625 114.03125 127.519531 C 104.648438 120.898438 89.195312 115.378906 94.164062 106 C 90.300781 103.238281 90.300781 103.238281 90.300781 103.238281 L 78.710938 117.589844 C 78.710938 117.589844 69.976562 126.980469 70.429688 138.011719 C 70.980469 151.253906 76.554688 155.589844 88.089844 163.394531 C 106.855469 176.085938 115.679688 181.054688 110.714844 186.570312 C 115.136719 189.875 112.375 187.671875 115.136719 189.875 Z M 160.621094 150 L 184.996094 118.585938 C 184.996094 118.585938 193.453125 109.558594 193.453125 92.640625 C 193.453125 75.71875 179.921875 65.566406 172.585938 60.488281 C 165.25 55.414062 138.175781 36.800781 138.175781 36.800781 C 138.175781 36.800781 128.585938 31.726562 128.585938 24.390625 C 128.585938 18.75 130.128906 17.820312 130.128906 17.820312 L 126.75 15 L 105.460938 43.566406 C 105.460938 43.566406 97 52.589844 97 66.125 C 97 79.660156 103.203125 90.378906 109.976562 95.453125 C 116.746094 100.53125 147.203125 121.398438 147.203125 121.398438 C 147.203125 121.398438 157.203125 128.824219 158.484375 137.761719 C 159.378906 143.996094 158.929688 144.921875 157.238281 147.738281 C 160.621094 150 160.621094 150 160.621094 150 Z M 148.90625 235 L 101.09375 235 L 96.09375 215 L 60 215 L 65 205 L 185 205 L 190 215 L 153.90625 215 Z M 148.90625 235 "/>
</g>
</svg>
