<?xml version="1.0" encoding="UTF-8"?>
<svg xmlns="http://www.w3.org/2000/svg" xmlns:xlink="http://www.w3.org/1999/xlink" viewBox="0 0 100 100" width="100px" height="100px">
<g id="surface72834349">
<path style=" stroke:none;fill-rule:nonzero;fill:rgb(100%,100%,100%);fill-opacity:1;" d="M 46.054688 75.949219 C 51.792969 68.445312 54 66.242188 54 62.042969 C 54 56.304688 49.363281 53.65625 45.613281 51.007812 C 41.859375 48.359375 35.679688 46.152344 37.664062 42.398438 C 36.121094 41.296875 36.121094 41.296875 36.121094 41.296875 L 31.484375 47.035156 C 31.484375 47.035156 27.988281 50.792969 28.171875 55.203125 C 28.390625 60.503906 30.621094 62.234375 35.234375 65.359375 C 42.742188 70.433594 46.273438 72.421875 44.285156 74.628906 C 46.054688 75.949219 44.949219 75.066406 46.054688 75.949219 Z M 64.246094 60 L 73.996094 47.433594 C 73.996094 47.433594 77.382812 43.824219 77.382812 37.054688 C 77.382812 30.289062 71.96875 26.226562 69.035156 24.195312 C 66.101562 22.164062 55.269531 14.71875 55.269531 14.71875 C 55.269531 14.71875 51.433594 12.691406 51.433594 9.757812 C 51.433594 7.5 52.050781 7.128906 52.050781 7.128906 L 50.699219 6 L 42.183594 17.425781 C 42.183594 17.425781 38.800781 21.035156 38.800781 26.449219 C 38.800781 31.863281 41.28125 36.152344 43.988281 38.183594 C 46.699219 40.210938 58.882812 48.558594 58.882812 48.558594 C 58.882812 48.558594 62.882812 51.53125 63.394531 55.105469 C 63.753906 57.597656 63.570312 57.96875 62.894531 59.097656 C 64.246094 60 64.246094 60 64.246094 60 Z M 59.5625 94 L 40.4375 94 L 38.4375 86 L 24 86 L 26 82 L 74 82 L 76 86 L 61.5625 86 Z M 59.5625 94 "/>
</g>
</svg>
